<svg width="513" height="512" viewBox="0 0 513 512" fill="none" xmlns="http://www.w3.org/2000/svg">
<path d="M96 101.714C96 98.5584 98.5584 96 101.714 96H238.857C242.013 96 244.571 98.5584 244.571 101.714V181.714C244.571 184.87 242.013 187.429 238.857 187.429H101.714C98.5584 187.429 96 184.87 96 181.714V101.714Z" fill="#0A84FF"/>
<path d="M96 216C96 212.844 98.5584 210.286 101.714 210.286H153.143C156.299 210.286 158.857 212.844 158.857 216V296C158.857 299.156 156.299 301.714 153.143 301.714H101.714C98.5584 301.714 96 299.156 96 296V216Z" fill="#0A84FF"/>
<path d="M181.714 216C181.714 212.844 184.273 210.286 187.429 210.286H238.857C242.013 210.286 244.571 212.844 244.571 216V296C244.571 299.156 242.013 301.714 238.857 301.714H187.429C184.273 301.714 181.714 299.156 181.714 296V216Z" fill="#0A84FF"/>
<path d="M96 330.286C96 327.13 98.5584 324.571 101.714 324.571H238.857C242.013 324.571 244.571 327.13 244.571 330.286V410.286C244.571 413.442 242.013 416 238.857 416H101.714C98.5584 416 96 413.442 96 410.286V330.286Z" fill="#0A84FF"/>
<path d="M267.431 101.714C267.431 98.5584 269.99 96 273.146 96H410.289C413.444 96 416.003 98.5584 416.003 101.714V181.714C416.003 184.87 413.444 187.429 410.289 187.429H273.146C269.99 187.429 267.431 184.87 267.431 181.714V101.714Z" fill="#0070E0"/>
<path d="M267.431 216C267.431 212.844 269.99 210.286 273.146 210.286H324.574C327.73 210.286 330.289 212.844 330.289 216V296C330.289 299.156 327.73 301.714 324.574 301.714H273.146C269.99 301.714 267.431 299.156 267.431 296V216Z" fill="#0070E0"/>
<path d="M267.431 330.286C267.431 327.13 269.99 324.571 273.146 324.571H410.289C413.444 324.571 416.003 327.13 416.003 330.286V410.286C416.003 413.442 413.444 416 410.289 416H273.146C269.99 416 267.431 413.442 267.431 410.286V330.286Z" fill="#0070E0"/>
</svg>
